<?xml version="1.0" encoding="UTF-8" standalone="no"?>
<!DOCTYPE svg PUBLIC "-//W3C//DTD SVG 1.1//EN"
 "http://www.w3.org/Graphics/SVG/1.1/DTD/svg11.dtd">
<!-- Generated by graphviz version 2.43.0 (0)
 -->
<!-- Title: G Pages: 1 -->
<svg width="755pt" height="230pt"
 viewBox="0.00 0.00 755.20 230.20" xmlns="http://www.w3.org/2000/svg" xmlns:xlink="http://www.w3.org/1999/xlink">
<g id="graph0" class="graph" transform="scale(1 1) rotate(0) translate(21.6 208.6)">
<title>G</title>
<polygon fill="#111111" stroke="transparent" points="-21.6,21.6 -21.6,-208.6 733.6,-208.6 733.6,21.6 -21.6,21.6"/>
<!-- App.css -->
<g id="node1" class="node">
<title>App.css</title>
<path fill="none" stroke="#cfffac" d="M394.33,-187C394.33,-187 344.67,-187 344.67,-187 340.83,-187 337,-183.17 337,-179.33 337,-179.33 337,-171.67 337,-171.67 337,-167.83 340.83,-164 344.67,-164 344.67,-164 394.33,-164 394.33,-164 398.17,-164 402,-167.83 402,-171.67 402,-171.67 402,-179.33 402,-179.33 402,-183.17 398.17,-187 394.33,-187"/>
<text text-anchor="middle" x="369.5" y="-171.8" font-family="Arial" font-size="14.00" fill="#cfffac">App.css</text>
</g>
<!-- App.js -->
<g id="node2" class="node">
<title>App.js</title>
<path fill="none" stroke="#c6c5fe" d="M208.33,-105C208.33,-105 169.67,-105 169.67,-105 165.83,-105 162,-101.17 162,-97.33 162,-97.33 162,-89.67 162,-89.67 162,-85.83 165.83,-82 169.67,-82 169.67,-82 208.33,-82 208.33,-82 212.17,-82 216,-85.83 216,-89.67 216,-89.67 216,-97.33 216,-97.33 216,-101.17 212.17,-105 208.33,-105"/>
<text text-anchor="middle" x="189" y="-89.8" font-family="Arial" font-size="14.00" fill="#c6c5fe">App.js</text>
</g>
<!-- App.js&#45;&gt;App.css -->
<g id="edge1" class="edge">
<title>App.js&#45;&gt;App.css</title>
<path fill="none" stroke="#757575" d="M203.88,-105.1C221.29,-119.08 252.55,-142.31 283,-155.5 296.73,-161.45 312.51,-165.78 326.74,-168.85"/>
<polygon fill="#757575" stroke="#757575" points="326.28,-172.33 336.77,-170.88 327.66,-165.47 326.28,-172.33"/>
</g>
<!-- components/Board.jsx -->
<g id="node3" class="node">
<title>components/Board.jsx</title>
<path fill="none" stroke="#c6c5fe" d="M437.33,-146C437.33,-146 301.67,-146 301.67,-146 297.83,-146 294,-142.17 294,-138.33 294,-138.33 294,-130.67 294,-130.67 294,-126.83 297.83,-123 301.67,-123 301.67,-123 437.33,-123 437.33,-123 441.17,-123 445,-126.83 445,-130.67 445,-130.67 445,-138.33 445,-138.33 445,-142.17 441.17,-146 437.33,-146"/>
<text text-anchor="middle" x="369.5" y="-130.8" font-family="Arial" font-size="14.00" fill="#c6c5fe">components/Board.jsx</text>
</g>
<!-- App.js&#45;&gt;components/Board.jsx -->
<g id="edge2" class="edge">
<title>App.js&#45;&gt;components/Board.jsx</title>
<path fill="none" stroke="#757575" d="M216.34,-99.55C240.49,-105.1 277.15,-113.52 308.43,-120.7"/>
<polygon fill="#757575" stroke="#757575" points="307.85,-124.16 318.38,-122.99 309.41,-117.34 307.85,-124.16"/>
</g>
<!-- components/MediaBar.jsx -->
<g id="node4" class="node">
<title>components/MediaBar.jsx</title>
<path fill="none" stroke="#cfffac" d="M448.33,-105C448.33,-105 290.67,-105 290.67,-105 286.83,-105 283,-101.17 283,-97.33 283,-97.33 283,-89.67 283,-89.67 283,-85.83 286.83,-82 290.67,-82 290.67,-82 448.33,-82 448.33,-82 452.17,-82 456,-85.83 456,-89.67 456,-89.67 456,-97.33 456,-97.33 456,-101.17 452.17,-105 448.33,-105"/>
<text text-anchor="middle" x="369.5" y="-89.8" font-family="Arial" font-size="14.00" fill="#cfffac">components/MediaBar.jsx</text>
</g>
<!-- App.js&#45;&gt;components/MediaBar.jsx -->
<g id="edge3" class="edge">
<title>App.js&#45;&gt;components/MediaBar.jsx</title>
<path fill="none" stroke="#757575" d="M216.34,-93.5C231.59,-93.5 251.83,-93.5 272.55,-93.5"/>
<polygon fill="#757575" stroke="#757575" points="272.74,-97 282.74,-93.5 272.74,-90 272.74,-97"/>
</g>
<!-- components/ToolBar.jsx -->
<g id="node5" class="node">
<title>components/ToolBar.jsx</title>
<path fill="none" stroke="#c6c5fe" d="M441.83,-25C441.83,-25 297.17,-25 297.17,-25 293.33,-25 289.5,-21.17 289.5,-17.33 289.5,-17.33 289.5,-9.67 289.5,-9.67 289.5,-5.83 293.33,-2 297.17,-2 297.17,-2 441.83,-2 441.83,-2 445.67,-2 449.5,-5.83 449.5,-9.67 449.5,-9.67 449.5,-17.33 449.5,-17.33 449.5,-21.17 445.67,-25 441.83,-25"/>
<text text-anchor="middle" x="369.5" y="-9.8" font-family="Arial" font-size="14.00" fill="#c6c5fe">components/ToolBar.jsx</text>
</g>
<!-- App.js&#45;&gt;components/ToolBar.jsx -->
<g id="edge4" class="edge">
<title>App.js&#45;&gt;components/ToolBar.jsx</title>
<path fill="none" stroke="#757575" d="M216.28,-86.81C226.32,-83.62 237.6,-79.23 247,-73.5 265.79,-62.05 263.97,-50.55 283,-39.5 290.51,-35.14 298.82,-31.45 307.22,-28.33"/>
<polygon fill="#757575" stroke="#757575" points="308.39,-31.63 316.71,-25.06 306.11,-25.01 308.39,-31.63"/>
</g>
<!-- components/engine/Generation.js -->
<g id="node6" class="node">
<title>components/engine/Generation.js</title>
<path fill="none" stroke="#cfffac" d="M704.33,-86C704.33,-86 499.67,-86 499.67,-86 495.83,-86 492,-82.17 492,-78.33 492,-78.33 492,-70.67 492,-70.67 492,-66.83 495.83,-63 499.67,-63 499.67,-63 704.33,-63 704.33,-63 708.17,-63 712,-66.83 712,-70.67 712,-70.67 712,-78.33 712,-78.33 712,-82.17 708.17,-86 704.33,-86"/>
<text text-anchor="middle" x="602" y="-70.8" font-family="Arial" font-size="14.00" fill="#cfffac">components/engine/Generation.js</text>
</g>
<!-- App.js&#45;&gt;components/engine/Generation.js -->
<g id="edge5" class="edge">
<title>App.js&#45;&gt;components/engine/Generation.js</title>
<path fill="none" stroke="#757575" d="M216.22,-86.31C234.72,-81.61 260.17,-75.93 283,-73.5 348.39,-66.55 421.77,-66.28 481.55,-67.98"/>
<polygon fill="#757575" stroke="#757575" points="481.68,-71.49 491.79,-68.3 481.9,-64.49 481.68,-71.49"/>
</g>
<!-- components/Board.jsx&#45;&gt;components/engine/Generation.js -->
<g id="edge8" class="edge">
<title>components/Board.jsx&#45;&gt;components/engine/Generation.js</title>
<path fill="none" stroke="#757575" d="M421.22,-122.98C432.68,-120.29 444.77,-117.36 456,-114.5 487.67,-106.43 523.02,-96.69 550.89,-88.85"/>
<polygon fill="#757575" stroke="#757575" points="552.13,-92.13 560.8,-86.05 550.22,-85.4 552.13,-92.13"/>
</g>
<!-- components/Square.jsx -->
<g id="node8" class="node">
<title>components/Square.jsx</title>
<path fill="none" stroke="#cfffac" d="M673.33,-146C673.33,-146 530.67,-146 530.67,-146 526.83,-146 523,-142.17 523,-138.33 523,-138.33 523,-130.67 523,-130.67 523,-126.83 526.83,-123 530.67,-123 530.67,-123 673.33,-123 673.33,-123 677.17,-123 681,-126.83 681,-130.67 681,-130.67 681,-138.33 681,-138.33 681,-142.17 677.17,-146 673.33,-146"/>
<text text-anchor="middle" x="602" y="-130.8" font-family="Arial" font-size="14.00" fill="#cfffac">components/Square.jsx</text>
</g>
<!-- components/Board.jsx&#45;&gt;components/Square.jsx -->
<g id="edge7" class="edge">
<title>components/Board.jsx&#45;&gt;components/Square.jsx</title>
<path fill="none" stroke="#757575" d="M445.02,-134.5C466.58,-134.5 490.32,-134.5 512.63,-134.5"/>
<polygon fill="#757575" stroke="#757575" points="512.77,-138 522.77,-134.5 512.77,-131 512.77,-138"/>
</g>
<!-- components/Toggle.jsx -->
<g id="node9" class="node">
<title>components/Toggle.jsx</title>
<path fill="none" stroke="#cfffac" d="M671.83,-25C671.83,-25 532.17,-25 532.17,-25 528.33,-25 524.5,-21.17 524.5,-17.33 524.5,-17.33 524.5,-9.67 524.5,-9.67 524.5,-5.83 528.33,-2 532.17,-2 532.17,-2 671.83,-2 671.83,-2 675.67,-2 679.5,-5.83 679.5,-9.67 679.5,-9.67 679.5,-17.33 679.5,-17.33 679.5,-21.17 675.67,-25 671.83,-25"/>
<text text-anchor="middle" x="602" y="-9.8" font-family="Arial" font-size="14.00" fill="#cfffac">components/Toggle.jsx</text>
</g>
<!-- components/ToolBar.jsx&#45;&gt;components/Toggle.jsx -->
<g id="edge9" class="edge">
<title>components/ToolBar.jsx&#45;&gt;components/Toggle.jsx</title>
<path fill="none" stroke="#757575" d="M449.5,-13.5C470.43,-13.5 493.13,-13.5 514.43,-13.5"/>
<polygon fill="#757575" stroke="#757575" points="514.44,-17 524.44,-13.5 514.44,-10 514.44,-17"/>
</g>
<!-- App.test.js -->
<g id="node7" class="node">
<title>App.test.js</title>
<path fill="none" stroke="#c6c5fe" d="M79.83,-105C79.83,-105 15.17,-105 15.17,-105 11.33,-105 7.5,-101.17 7.5,-97.33 7.5,-97.33 7.5,-89.67 7.5,-89.67 7.5,-85.83 11.33,-82 15.17,-82 15.17,-82 79.83,-82 79.83,-82 83.67,-82 87.5,-85.83 87.5,-89.67 87.5,-89.67 87.5,-97.33 87.5,-97.33 87.5,-101.17 83.67,-105 79.83,-105"/>
<text text-anchor="middle" x="47.5" y="-89.8" font-family="Arial" font-size="14.00" fill="#c6c5fe">App.test.js</text>
</g>
<!-- App.test.js&#45;&gt;App.js -->
<g id="edge6" class="edge">
<title>App.test.js&#45;&gt;App.js</title>
<path fill="none" stroke="#757575" d="M87.73,-93.5C107.81,-93.5 132.1,-93.5 151.74,-93.5"/>
<polygon fill="#757575" stroke="#757575" points="151.83,-97 161.83,-93.5 151.83,-90 151.83,-97"/>
</g>
<!-- index.css -->
<g id="node10" class="node">
<title>index.css</title>
<path fill="none" stroke="#cfffac" d="M217.83,-64C217.83,-64 160.17,-64 160.17,-64 156.33,-64 152.5,-60.17 152.5,-56.33 152.5,-56.33 152.5,-48.67 152.5,-48.67 152.5,-44.83 156.33,-41 160.17,-41 160.17,-41 217.83,-41 217.83,-41 221.67,-41 225.5,-44.83 225.5,-48.67 225.5,-48.67 225.5,-56.33 225.5,-56.33 225.5,-60.17 221.67,-64 217.83,-64"/>
<text text-anchor="middle" x="189" y="-48.8" font-family="Arial" font-size="14.00" fill="#cfffac">index.css</text>
</g>
<!-- index.js -->
<g id="node11" class="node">
<title>index.js</title>
<path fill="none" stroke="#c6c5fe" d="M70.83,-64C70.83,-64 24.17,-64 24.17,-64 20.33,-64 16.5,-60.17 16.5,-56.33 16.5,-56.33 16.5,-48.67 16.5,-48.67 16.5,-44.83 20.33,-41 24.17,-41 24.17,-41 70.83,-41 70.83,-41 74.67,-41 78.5,-44.83 78.5,-48.67 78.5,-48.67 78.5,-56.33 78.5,-56.33 78.5,-60.17 74.67,-64 70.83,-64"/>
<text text-anchor="middle" x="47.5" y="-48.8" font-family="Arial" font-size="14.00" fill="#c6c5fe">index.js</text>
</g>
<!-- index.js&#45;&gt;App.js -->
<g id="edge10" class="edge">
<title>index.js&#45;&gt;App.js</title>
<path fill="none" stroke="#757575" d="M78.77,-61.4C100.27,-67.72 129.23,-76.23 151.93,-82.9"/>
<polygon fill="#757575" stroke="#757575" points="150.97,-86.26 161.55,-85.73 152.94,-79.55 150.97,-86.26"/>
</g>
<!-- index.js&#45;&gt;index.css -->
<g id="edge11" class="edge">
<title>index.js&#45;&gt;index.css</title>
<path fill="none" stroke="#757575" d="M78.77,-52.5C97.28,-52.5 121.32,-52.5 142.13,-52.5"/>
<polygon fill="#757575" stroke="#757575" points="142.36,-56 152.36,-52.5 142.36,-49 142.36,-56"/>
</g>
<!-- serviceWorker.js -->
<g id="node12" class="node">
<title>serviceWorker.js</title>
<path fill="none" stroke="#cfffac" d="M239.33,-23C239.33,-23 138.67,-23 138.67,-23 134.83,-23 131,-19.17 131,-15.33 131,-15.33 131,-7.67 131,-7.67 131,-3.83 134.83,0 138.67,0 138.67,0 239.33,0 239.33,0 243.17,0 247,-3.83 247,-7.67 247,-7.67 247,-15.33 247,-15.33 247,-19.17 243.17,-23 239.33,-23"/>
<text text-anchor="middle" x="189" y="-7.8" font-family="Arial" font-size="14.00" fill="#cfffac">serviceWorker.js</text>
</g>
<!-- index.js&#45;&gt;serviceWorker.js -->
<g id="edge12" class="edge">
<title>index.js&#45;&gt;serviceWorker.js</title>
<path fill="none" stroke="#757575" d="M78.77,-43.6C96.4,-38.42 119.05,-31.77 139.14,-25.86"/>
<polygon fill="#757575" stroke="#757575" points="140.16,-29.21 148.77,-23.03 138.19,-22.49 140.16,-29.21"/>
</g>
<!-- setupTests.js -->
<g id="node13" class="node">
<title>setupTests.js</title>
<path fill="none" stroke="#cfffac" d="M87.33,-146C87.33,-146 7.67,-146 7.67,-146 3.83,-146 0,-142.17 0,-138.33 0,-138.33 0,-130.67 0,-130.67 0,-126.83 3.83,-123 7.67,-123 7.67,-123 87.33,-123 87.33,-123 91.17,-123 95,-126.83 95,-130.67 95,-130.67 95,-138.33 95,-138.33 95,-142.17 91.17,-146 87.33,-146"/>
<text text-anchor="middle" x="47.5" y="-130.8" font-family="Arial" font-size="14.00" fill="#cfffac">setupTests.js</text>
</g>
</g>
</svg>
