<?xml version="1.0" encoding="UTF-8" standalone="no"?>
<!DOCTYPE svg PUBLIC "-//W3C//DTD SVG 1.1//EN"
 "http://www.w3.org/Graphics/SVG/1.1/DTD/svg11.dtd">
<!-- Generated by graphviz version 2.43.0 (0)
 -->
<!-- Title: G Pages: 1 -->
<svg width="755pt" height="269pt"
 viewBox="0.00 0.00 755.20 269.20" xmlns="http://www.w3.org/2000/svg" xmlns:xlink="http://www.w3.org/1999/xlink">
<g id="graph0" class="graph" transform="scale(1 1) rotate(0) translate(21.6 247.6)">
<title>G</title>
<polygon fill="#111111" stroke="transparent" points="-21.6,21.6 -21.6,-247.6 733.6,-247.6 733.6,21.6 -21.6,21.6"/>
<!-- App.css -->
<g id="node1" class="node">
<title>App.css</title>
<path fill="none" stroke="#cfffac" d="M394.33,-226C394.33,-226 344.67,-226 344.67,-226 340.83,-226 337,-222.17 337,-218.33 337,-218.33 337,-210.67 337,-210.67 337,-206.83 340.83,-203 344.67,-203 344.67,-203 394.33,-203 394.33,-203 398.17,-203 402,-206.83 402,-210.67 402,-210.67 402,-218.33 402,-218.33 402,-222.17 398.17,-226 394.33,-226"/>
<text text-anchor="middle" x="369.5" y="-210.8" font-family="Arial" font-size="14.00" fill="#cfffac">App.css</text>
</g>
<!-- App.js -->
<g id="node2" class="node">
<title>App.js</title>
<path fill="none" stroke="#c6c5fe" d="M208.33,-123C208.33,-123 169.67,-123 169.67,-123 165.83,-123 162,-119.17 162,-115.33 162,-115.33 162,-107.67 162,-107.67 162,-103.83 165.83,-100 169.67,-100 169.67,-100 208.33,-100 208.33,-100 212.17,-100 216,-103.83 216,-107.67 216,-107.67 216,-115.33 216,-115.33 216,-119.17 212.17,-123 208.33,-123"/>
<text text-anchor="middle" x="189" y="-107.8" font-family="Arial" font-size="14.00" fill="#c6c5fe">App.js</text>
</g>
<!-- App.js&#45;&gt;App.css -->
<g id="edge1" class="edge">
<title>App.js&#45;&gt;App.css</title>
<path fill="none" stroke="#757575" d="M199.55,-123.15C215.08,-141.29 247.67,-176.14 283,-194.5 296.39,-201.46 312.21,-206.02 326.57,-209.01"/>
<polygon fill="#757575" stroke="#757575" points="326.25,-212.51 336.72,-210.92 327.54,-205.63 326.25,-212.51"/>
</g>
<!-- components/Board.jsx -->
<g id="node3" class="node">
<title>components/Board.jsx</title>
<path fill="none" stroke="#c6c5fe" d="M437.33,-144C437.33,-144 301.67,-144 301.67,-144 297.83,-144 294,-140.17 294,-136.33 294,-136.33 294,-128.67 294,-128.67 294,-124.83 297.83,-121 301.67,-121 301.67,-121 437.33,-121 437.33,-121 441.17,-121 445,-124.83 445,-128.67 445,-128.67 445,-136.33 445,-136.33 445,-140.17 441.17,-144 437.33,-144"/>
<text text-anchor="middle" x="369.5" y="-128.8" font-family="Arial" font-size="14.00" fill="#c6c5fe">components/Board.jsx</text>
</g>
<!-- App.js&#45;&gt;components/Board.jsx -->
<g id="edge2" class="edge">
<title>App.js&#45;&gt;components/Board.jsx</title>
<path fill="none" stroke="#757575" d="M216.34,-114.6C234.32,-116.71 259.24,-119.65 283.71,-122.52"/>
<polygon fill="#757575" stroke="#757575" points="283.44,-126.02 293.78,-123.71 284.26,-119.07 283.44,-126.02"/>
</g>
<!-- components/MediaBar.jsx -->
<g id="node4" class="node">
<title>components/MediaBar.jsx</title>
<path fill="none" stroke="#c6c5fe" d="M448.33,-185C448.33,-185 290.67,-185 290.67,-185 286.83,-185 283,-181.17 283,-177.33 283,-177.33 283,-169.67 283,-169.67 283,-165.83 286.83,-162 290.67,-162 290.67,-162 448.33,-162 448.33,-162 452.17,-162 456,-165.83 456,-169.67 456,-169.67 456,-177.33 456,-177.33 456,-181.17 452.17,-185 448.33,-185"/>
<text text-anchor="middle" x="369.5" y="-169.8" font-family="Arial" font-size="14.00" fill="#c6c5fe">components/MediaBar.jsx</text>
</g>
<!-- App.js&#45;&gt;components/MediaBar.jsx -->
<g id="edge3" class="edge">
<title>App.js&#45;&gt;components/MediaBar.jsx</title>
<path fill="none" stroke="#757575" d="M212.43,-123.12C230.97,-132.36 258.17,-145.08 283,-153.5 289.06,-155.56 295.44,-157.48 301.86,-159.25"/>
<polygon fill="#757575" stroke="#757575" points="301.39,-162.74 311.95,-161.91 303.18,-155.98 301.39,-162.74"/>
</g>
<!-- components/Rules.jsx -->
<g id="node5" class="node">
<title>components/Rules.jsx</title>
<path fill="none" stroke="#cfffac" d="M436.33,-103C436.33,-103 302.67,-103 302.67,-103 298.83,-103 295,-99.17 295,-95.33 295,-95.33 295,-87.67 295,-87.67 295,-83.83 298.83,-80 302.67,-80 302.67,-80 436.33,-80 436.33,-80 440.17,-80 444,-83.83 444,-87.67 444,-87.67 444,-95.33 444,-95.33 444,-99.17 440.17,-103 436.33,-103"/>
<text text-anchor="middle" x="369.5" y="-87.8" font-family="Arial" font-size="14.00" fill="#cfffac">components/Rules.jsx</text>
</g>
<!-- App.js&#45;&gt;components/Rules.jsx -->
<g id="edge4" class="edge">
<title>App.js&#45;&gt;components/Rules.jsx</title>
<path fill="none" stroke="#757575" d="M216.34,-108.55C234.58,-106.51 259.95,-103.66 284.76,-100.88"/>
<polygon fill="#757575" stroke="#757575" points="285.41,-104.33 294.96,-99.74 284.63,-97.38 285.41,-104.33"/>
</g>
<!-- components/ToolBar.jsx -->
<g id="node6" class="node">
<title>components/ToolBar.jsx</title>
<path fill="none" stroke="#c6c5fe" d="M441.83,-23C441.83,-23 297.17,-23 297.17,-23 293.33,-23 289.5,-19.17 289.5,-15.33 289.5,-15.33 289.5,-7.67 289.5,-7.67 289.5,-3.83 293.33,0 297.17,0 297.17,0 441.83,0 441.83,0 445.67,0 449.5,-3.83 449.5,-7.67 449.5,-7.67 449.5,-15.33 449.5,-15.33 449.5,-19.17 445.67,-23 441.83,-23"/>
<text text-anchor="middle" x="369.5" y="-7.8" font-family="Arial" font-size="14.00" fill="#c6c5fe">components/ToolBar.jsx</text>
</g>
<!-- App.js&#45;&gt;components/ToolBar.jsx -->
<g id="edge5" class="edge">
<title>App.js&#45;&gt;components/ToolBar.jsx</title>
<path fill="none" stroke="#757575" d="M216.13,-105.59C226.48,-102.35 238.03,-97.52 247,-90.5 269.43,-72.96 260.07,-54.38 283,-37.5 288.62,-33.36 294.91,-29.87 301.46,-26.93"/>
<polygon fill="#757575" stroke="#757575" points="303.22,-30 311.19,-23.01 300.61,-23.5 303.22,-30"/>
</g>
<!-- components/engine/Generation.js -->
<g id="node7" class="node">
<title>components/engine/Generation.js</title>
<path fill="none" stroke="#cfffac" d="M704.33,-84C704.33,-84 499.67,-84 499.67,-84 495.83,-84 492,-80.17 492,-76.33 492,-76.33 492,-68.67 492,-68.67 492,-64.83 495.83,-61 499.67,-61 499.67,-61 704.33,-61 704.33,-61 708.17,-61 712,-64.83 712,-68.67 712,-68.67 712,-76.33 712,-76.33 712,-80.17 708.17,-84 704.33,-84"/>
<text text-anchor="middle" x="602" y="-68.8" font-family="Arial" font-size="14.00" fill="#cfffac">components/engine/Generation.js</text>
</g>
<!-- App.js&#45;&gt;components/engine/Generation.js -->
<g id="edge6" class="edge">
<title>App.js&#45;&gt;components/engine/Generation.js</title>
<path fill="none" stroke="#757575" d="M216.16,-102.82C225.97,-99.31 237.13,-95.03 247,-90.5 263.64,-82.87 265.28,-75.09 283,-70.5 358.84,-50.85 448.32,-53.6 513,-59.95"/>
<polygon fill="#757575" stroke="#757575" points="512.86,-63.46 523.17,-61 513.58,-56.49 512.86,-63.46"/>
</g>
<!-- components/Board.jsx&#45;&gt;components/engine/Generation.js -->
<g id="edge9" class="edge">
<title>components/Board.jsx&#45;&gt;components/engine/Generation.js</title>
<path fill="none" stroke="#757575" d="M421.22,-120.98C432.68,-118.29 444.77,-115.36 456,-112.5 487.67,-104.43 523.02,-94.69 550.89,-86.85"/>
<polygon fill="#757575" stroke="#757575" points="552.13,-90.13 560.8,-84.05 550.22,-83.4 552.13,-90.13"/>
</g>
<!-- components/Square.jsx -->
<g id="node9" class="node">
<title>components/Square.jsx</title>
<path fill="none" stroke="#cfffac" d="M673.33,-144C673.33,-144 530.67,-144 530.67,-144 526.83,-144 523,-140.17 523,-136.33 523,-136.33 523,-128.67 523,-128.67 523,-124.83 526.83,-121 530.67,-121 530.67,-121 673.33,-121 673.33,-121 677.17,-121 681,-124.83 681,-128.67 681,-128.67 681,-136.33 681,-136.33 681,-140.17 677.17,-144 673.33,-144"/>
<text text-anchor="middle" x="602" y="-128.8" font-family="Arial" font-size="14.00" fill="#cfffac">components/Square.jsx</text>
</g>
<!-- components/Board.jsx&#45;&gt;components/Square.jsx -->
<g id="edge8" class="edge">
<title>components/Board.jsx&#45;&gt;components/Square.jsx</title>
<path fill="none" stroke="#757575" d="M445.02,-132.5C466.58,-132.5 490.32,-132.5 512.63,-132.5"/>
<polygon fill="#757575" stroke="#757575" points="512.77,-136 522.77,-132.5 512.77,-129 512.77,-136"/>
</g>
<!-- components/SpeedLimit.jsx -->
<g id="node10" class="node">
<title>components/SpeedLimit.jsx</title>
<path fill="none" stroke="#cfffac" d="M685.83,-185C685.83,-185 518.17,-185 518.17,-185 514.33,-185 510.5,-181.17 510.5,-177.33 510.5,-177.33 510.5,-169.67 510.5,-169.67 510.5,-165.83 514.33,-162 518.17,-162 518.17,-162 685.83,-162 685.83,-162 689.67,-162 693.5,-165.83 693.5,-169.67 693.5,-169.67 693.5,-177.33 693.5,-177.33 693.5,-181.17 689.67,-185 685.83,-185"/>
<text text-anchor="middle" x="602" y="-169.8" font-family="Arial" font-size="14.00" fill="#cfffac">components/SpeedLimit.jsx</text>
</g>
<!-- components/MediaBar.jsx&#45;&gt;components/SpeedLimit.jsx -->
<g id="edge10" class="edge">
<title>components/MediaBar.jsx&#45;&gt;components/SpeedLimit.jsx</title>
<path fill="none" stroke="#757575" d="M456,-173.5C470.37,-173.5 485.4,-173.5 500.11,-173.5"/>
<polygon fill="#757575" stroke="#757575" points="500.23,-177 510.23,-173.5 500.23,-170 500.23,-177"/>
</g>
<!-- components/Toggle.jsx -->
<g id="node11" class="node">
<title>components/Toggle.jsx</title>
<path fill="none" stroke="#cfffac" d="M671.83,-23C671.83,-23 532.17,-23 532.17,-23 528.33,-23 524.5,-19.17 524.5,-15.33 524.5,-15.33 524.5,-7.67 524.5,-7.67 524.5,-3.83 528.33,0 532.17,0 532.17,0 671.83,0 671.83,0 675.67,0 679.5,-3.83 679.5,-7.67 679.5,-7.67 679.5,-15.33 679.5,-15.33 679.5,-19.17 675.67,-23 671.83,-23"/>
<text text-anchor="middle" x="602" y="-7.8" font-family="Arial" font-size="14.00" fill="#cfffac">components/Toggle.jsx</text>
</g>
<!-- components/ToolBar.jsx&#45;&gt;components/Toggle.jsx -->
<g id="edge11" class="edge">
<title>components/ToolBar.jsx&#45;&gt;components/Toggle.jsx</title>
<path fill="none" stroke="#757575" d="M449.5,-11.5C470.43,-11.5 493.13,-11.5 514.43,-11.5"/>
<polygon fill="#757575" stroke="#757575" points="514.44,-15 524.44,-11.5 514.44,-8 514.44,-15"/>
</g>
<!-- App.test.js -->
<g id="node8" class="node">
<title>App.test.js</title>
<path fill="none" stroke="#c6c5fe" d="M79.83,-123C79.83,-123 15.17,-123 15.17,-123 11.33,-123 7.5,-119.17 7.5,-115.33 7.5,-115.33 7.5,-107.67 7.5,-107.67 7.5,-103.83 11.33,-100 15.17,-100 15.17,-100 79.83,-100 79.83,-100 83.67,-100 87.5,-103.83 87.5,-107.67 87.5,-107.67 87.5,-115.33 87.5,-115.33 87.5,-119.17 83.67,-123 79.83,-123"/>
<text text-anchor="middle" x="47.5" y="-107.8" font-family="Arial" font-size="14.00" fill="#c6c5fe">App.test.js</text>
</g>
<!-- App.test.js&#45;&gt;App.js -->
<g id="edge7" class="edge">
<title>App.test.js&#45;&gt;App.js</title>
<path fill="none" stroke="#757575" d="M87.73,-111.5C107.81,-111.5 132.1,-111.5 151.74,-111.5"/>
<polygon fill="#757575" stroke="#757575" points="151.83,-115 161.83,-111.5 151.83,-108 151.83,-115"/>
</g>
<!-- index.css -->
<g id="node12" class="node">
<title>index.css</title>
<path fill="none" stroke="#cfffac" d="M217.83,-41C217.83,-41 160.17,-41 160.17,-41 156.33,-41 152.5,-37.17 152.5,-33.33 152.5,-33.33 152.5,-25.67 152.5,-25.67 152.5,-21.83 156.33,-18 160.17,-18 160.17,-18 217.83,-18 217.83,-18 221.67,-18 225.5,-21.83 225.5,-25.67 225.5,-25.67 225.5,-33.33 225.5,-33.33 225.5,-37.17 221.67,-41 217.83,-41"/>
<text text-anchor="middle" x="189" y="-25.8" font-family="Arial" font-size="14.00" fill="#cfffac">index.css</text>
</g>
<!-- index.js -->
<g id="node13" class="node">
<title>index.js</title>
<path fill="none" stroke="#c6c5fe" d="M70.83,-82C70.83,-82 24.17,-82 24.17,-82 20.33,-82 16.5,-78.17 16.5,-74.33 16.5,-74.33 16.5,-66.67 16.5,-66.67 16.5,-62.83 20.33,-59 24.17,-59 24.17,-59 70.83,-59 70.83,-59 74.67,-59 78.5,-62.83 78.5,-66.67 78.5,-66.67 78.5,-74.33 78.5,-74.33 78.5,-78.17 74.67,-82 70.83,-82"/>
<text text-anchor="middle" x="47.5" y="-66.8" font-family="Arial" font-size="14.00" fill="#c6c5fe">index.js</text>
</g>
<!-- index.js&#45;&gt;App.js -->
<g id="edge12" class="edge">
<title>index.js&#45;&gt;App.js</title>
<path fill="none" stroke="#757575" d="M78.77,-79.4C100.27,-85.72 129.23,-94.23 151.93,-100.9"/>
<polygon fill="#757575" stroke="#757575" points="150.97,-104.26 161.55,-103.73 152.94,-97.55 150.97,-104.26"/>
</g>
<!-- index.js&#45;&gt;index.css -->
<g id="edge13" class="edge">
<title>index.js&#45;&gt;index.css</title>
<path fill="none" stroke="#757575" d="M78.77,-61.6C97.45,-56.11 121.76,-48.97 142.7,-42.81"/>
<polygon fill="#757575" stroke="#757575" points="143.75,-46.15 152.36,-39.97 141.78,-39.44 143.75,-46.15"/>
</g>
<!-- serviceWorker.js -->
<g id="node14" class="node">
<title>serviceWorker.js</title>
<path fill="none" stroke="#cfffac" d="M239.33,-82C239.33,-82 138.67,-82 138.67,-82 134.83,-82 131,-78.17 131,-74.33 131,-74.33 131,-66.67 131,-66.67 131,-62.83 134.83,-59 138.67,-59 138.67,-59 239.33,-59 239.33,-59 243.17,-59 247,-62.83 247,-66.67 247,-66.67 247,-74.33 247,-74.33 247,-78.17 243.17,-82 239.33,-82"/>
<text text-anchor="middle" x="189" y="-66.8" font-family="Arial" font-size="14.00" fill="#cfffac">serviceWorker.js</text>
</g>
<!-- index.js&#45;&gt;serviceWorker.js -->
<g id="edge14" class="edge">
<title>index.js&#45;&gt;serviceWorker.js</title>
<path fill="none" stroke="#757575" d="M78.77,-70.5C91.14,-70.5 105.98,-70.5 120.68,-70.5"/>
<polygon fill="#757575" stroke="#757575" points="120.8,-74 130.8,-70.5 120.8,-67 120.8,-74"/>
</g>
<!-- setupTests.js -->
<g id="node15" class="node">
<title>setupTests.js</title>
<path fill="none" stroke="#cfffac" d="M87.33,-164C87.33,-164 7.67,-164 7.67,-164 3.83,-164 0,-160.17 0,-156.33 0,-156.33 0,-148.67 0,-148.67 0,-144.83 3.83,-141 7.67,-141 7.67,-141 87.33,-141 87.33,-141 91.17,-141 95,-144.83 95,-148.67 95,-148.67 95,-156.33 95,-156.33 95,-160.17 91.17,-164 87.33,-164"/>
<text text-anchor="middle" x="47.5" y="-148.8" font-family="Arial" font-size="14.00" fill="#cfffac">setupTests.js</text>
</g>
</g>
</svg>
